Saw I (2004) 720p Bluray (BDrip) Hindi Dubbed |THE DREAM TEAM|


General
Complete name : Saw I (2004) 720p Bluray (BDrip) Hindi Dubbed |THE DREAM TEAM|.mp4
Format : MPEG-4
Format profile : Base Media
Codec ID : isom
File size : 1.61 GiB
Duration : 1h 48mn
Overall bit rate : 2 134 Kbps
Encoded date : UTC 2011-08-11 10:32:09
Tagged date : UTC 2011-08-11 10:32:09

Video
ID : 2
Format : AVC
Format/Info : Advanced Video Codec
Format profile : Baseline@L1.3
Format settings, CABAC : No
Format settings, ReFrames : 1 frame
Format settings, GOP : M=1, N=25
Codec ID : avc1
Codec ID/Info : Advanced Video Coding
Duration : 1h 42mn
Bit rate : 2 014 Kbps
Maximum bit rate : 16.1 Mbps
Width : 1 280 pixels
Height : 720 pixels
Display aspect ratio : 16:9
Frame rate mode : Constant
Frame rate : 23.976 fps
Color space : YUV
Chroma subsampling : 4:2:0
Bit depth : 8 bits
Scan type : Progressive
Bits/(Pixel*Frame) : 0.091
Stream size : 1.44 GiB (89%)
Tagged date : UTC 2011-08-11 10:33:42

Audio
ID : 3
Format : AC-3
Format/Info : Audio Coding 3
Mode extension : CM (complete main)
Codec ID : ac-3
Duration : 1h 48mn
Bit rate mode : Constant
Bit rate : 224 Kbps
Channel(s) : 2 channels
Channel positions : Front: L R
Sampling rate : 48.0 KHz
Bit depth : 16 bits
Compression mode : Lossy
Stream size : 174 MiB (10%)
Language : Hindi
Encoded date : UTC 2011-08-11 10:33:28
Tagged date : UTC 2011-08-11 10:33:42

Ripper Note :- Give Proper Credits To Team TDT wherever u share dis file ....	


SCREENSHOTS:
If u r unable to see screenshots.
Copy the link and paste in your browsers URL (address). 
  
http://i801.photobucket.com/albums/yy300/arihant_arijain/2.jpg 
http://i801.photobucket.com/albums/yy300/arihant_arijain/4.jpg 
http://i801.photobucket.com/albums/yy300/arihant_arijain/8.jpg 
http://i801.photobucket.com/albums/yy300/arihant_arijain/9.jpg


SAMPLE ALSO INCLUDED WITH TORRENT !!!